FFmpeg version SVN-r25716, Copyright (c) 2000-2010 the FFmpeg developers  built on Nov 10 2010 12:23:18 with gcc 4.1.2 20080704 (Red Hat 4.1.2-48)  configuration: --enable-libmp3lame --enable-shared --disable-mmx --arch=x86_64  libavutil     50.33. 0 / 50.33. 0  libavcore      0.12. 1 /  0.12. 1  libavcodec    52.94. 4 / 52.94. 4  libavformat   52.84. 0 / 52.84. 0  libavdevice   52. 2. 2 / 52. 2. 2  libavfilter    1.59. 0 /  1.59. 0  libswscale     0.12. 0 /  0.12. 0Input #0, avi, from '/RAID10/data/converted_video_files/47512.avi':  Duration: 00:00:03.96, start: 0.000000, bitrate: 282740 kb/s    Stream #0.0: Video: msvideo1, rgb555le, 1024x1024, 30 tbr, 30 tbn, 30 tbc[buffer @ 0x7d8b4c0] w:1024 h:1024 pixfmt:rgb555le[ffsink @ 0x7d8a5a0] auto-inserting filter 'auto-inserted scaler 0' between the filter 'src' and the filter 'out'[scale @ 0x7d89460] w:1024 h:1024 fmt:rgb555le -> w:1024 h:1024 fmt:yuv420p flags:0x4Output #0, flv, to '/RAID10/data/converted_video_files/47512.flv':  Metadata:    encoder         : Lavf52.84.0    Stream #0.0: Video: flv, yuv420p, 1024x1024, q=2-31, 600 kb/s, 1k tbn, 24 tbcStream mapping:  Stream #0.0 -> #0.0Press [q] to stop encodingframe=    7 fps=  0 q=9.8 size=    1039kB time=0.29 bitrate=29143.0kbits/s dup=0 drop=1    frame=   16 fps= 13 q=31.0 size=    1086kB time=0.67 bitrate=13336.8kbits/s dup=0 drop=3    frame=   24 fps= 14 q=31.0 size=    1092kB time=1.00 bitrate=8949.7kbits/s dup=0 drop=6    frame=   33 fps= 15 q=31.0 size=    1128kB time=1.38 bitrate=6718.8kbits/s dup=0 drop=8    frame=   42 fps= 15 q=31.0 size=    1161kB time=1.75 bitrate=5432.9kbits/s dup=0 drop=10    frame=   49 fps= 15 q=24.8 size=    1193kB time=2.04 bitrate=4787.9kbits/s dup=0 drop=12    frame=   58 fps= 15 q=31.0 size=    1202kB time=2.42 bitrate=4074.5kbits/s dup=0 drop=14    frame=   67 fps= 15 q=31.0 size=    1235kB time=2.79 bitrate=3624.0kbits/s dup=0 drop=16    frame=   76 fps= 16 q=31.0 size=    1268kB time=3.17 bitrate=3279.3kbits/s dup=0 drop=19    frame=   84 fps= 16 q=31.0 size=    1273kB time=3.50 bitrate=2979.3kbits/s dup=0 drop=21    frame=   94 fps= 16 q=31.0 size=    1311kB time=3.92 bitrate=2741.6kbits/s dup=0 drop=23    frame=   95 fps= 16 q=31.0 Lsize=    1312kB time=3.96 bitrate=2714.8kbits/s dup=0 drop=24    video:1310kB audio:0kB global headers:0kB muxing overhead 0.128967%